<svg id="Capa_1" data-name="Capa 1" xmlns="http://www.w3.org/2000/svg" viewBox="0 0 175.3 200.54"><path d="M212.46,173.17a51,51,0,1,1-49.83-51.11A51.09,51.09,0,0,1,212.46,173.17ZM166,192.35c0-.54,0-.86,0-1.18.37-8.76.6-17.53,1.15-26.28s1.41-17.75,2.11-26.62a1.38,1.38,0,0,0-.49-.88,34.28,34.28,0,0,1-3.08-2.79,20.86,20.86,0,0,1-3.55-6.9l-.71-2.07c-.18.53-.27.84-.39,1.13-.8,1.91-1.51,3.88-2.44,5.72a11.61,11.61,0,0,1-4.55,5,1.21,1.21,0,0,0-.39,1c1.72,16.15,3.24,32.33,3.76,48.57,0,1.71,0,3.43,0,5.35l-8.58-1.14a37.66,37.66,0,0,1,1.27,4.5,6.64,6.64,0,0,1-1.4,4.53,32.83,32.83,0,0,1,25.85,0c-1.66-3.14-2.24-6.09-.08-9.14Zm31.43-33.12c-1.19,1.71-2.43,3.33-3.49,5.06a103.12,103.12,0,0,0-7.66,16.18c-2.45,6.35-5.22,12.6-6.36,19.39,0,0-.09.06-.14.09a14.08,14.08,0,0,0-1.57-1.43,1.35,1.35,0,0,0-2,.51,1.29,1.29,0,0,0,.25,1.86,14.64,14.64,0,0,1,5.63,6.55,8.91,8.91,0,0,0,1,1.29,9.24,9.24,0,0,0,0-1.66,23.18,23.18,0,0,1,1.14-11.78c2.29-5.83,4.4-11.73,6.68-17.57,3.15-8.05,7.58-15.22,14.45-20.68a2.23,2.23,0,0,0,.33-.54,2,2,0,0,0-.63-.29c-.91,0-1.82,0-2.73,0l-29.72.11a9.48,9.48,0,0,0-1.16.15,4,4,0,0,0,.31.57c4.58,5.93,5.57,12.7,4.36,19.84a10.48,10.48,0,0,1-7.24,8.68c-1,.36-1.19.89-.44,1.75a3.12,3.12,0,0,0,4.2.76,14,14,0,0,0,6.87-8.94c1.21-4.25.82-8.56.27-12.86a17.8,17.8,0,0,0-2.33-7.05Zm-79.69-2.87c0,.2,0,.29,0,.33a5.18,5.18,0,0,0,.4.41,44.85,44.85,0,0,1,12.5,16.34,229.22,229.22,0,0,1,8.5,21.77c.81,2.4,1.71,4.79,1.5,7.39-.14,1.82-.3,3.63-.42,5.44a2.09,2.09,0,0,0,.24.73,3.94,3.94,0,0,0,.51-.49,2.87,2.87,0,0,0,.25-.53,14.61,14.61,0,0,1,5.8-6.89c.24-.14.53-.63.45-.84a2.92,2.92,0,0,0-.94-1.54c-.4-.21-1.15.05-1.66.3a6.11,6.11,0,0,0-1.27,1.06c-.33-1.39-.58-2.9-1-4.34a192.61,192.61,0,0,0-8.53-22.38c-2.21-4.84-4.47-9.68-8.07-13.71,0,0,0-.11,0-.14H146c-.36.76-.71,1.42-1,2.11a29,29,0,0,0-1.69,9.45,23.39,23.39,0,0,0,1.12,9.61,13.8,13.8,0,0,0,6.54,7.68,3.19,3.19,0,0,0,4.3-1c.49-.72.35-1.2-.46-1.45a10.39,10.39,0,0,1-6.39-5.62,17.29,17.29,0,0,1-1.47-8.27c.17-5.41,1.32-10.5,4.88-14.79.09-.1.1-.28.2-.6ZM158.36,209c3.12-.65,4.44-.62,5.15.24a9.51,9.51,0,0,0-1-.1c-1.13.07-2.25.15-3.37.27-.79.09-1,.58-.77,1.31,3-.63,4.33-.6,5.12.24a7.54,7.54,0,0,0-.93-.07c-1.19.08-2.38.15-3.56.29-.78.09-1,.6-.77,1.33,2.89-.68,4.38-.67,5.27.18a7.57,7.57,0,0,0-.95-.06c-1.25.1-2.51.18-3.75.34-.7.09-.93.6-.79,1.28,4-.65,4.55-.65,5.38.12h-.81a22.39,22.39,0,0,0-3.28.17c-1.53.28-1.67.58-1.7,2.16l1.2-.42c-.67,2.18-.42,3.41.81,4.38a3.15,3.15,0,0,0,3.58.19c1.71-1.09,1.83-2.67,1.1-4.56l1.31.47a53.32,53.32,0,0,1-.06-16.05,15,15,0,0,1,7.17,1.8c.4.25.87.59,1.12,0,.11-.24-.21-.89-.5-1a15.06,15.06,0,0,0-3.22-1.35,36.12,36.12,0,0,0-17.17,0,15.44,15.44,0,0,0-3.3,1.42c-.24.12-.27.66-.41,1,.35,0,.78.16,1,0a17.08,17.08,0,0,1,6.49-2c.68-.1.94.13,1,.79.21,1.93.45,3.86.69,5.79,3.9-.57,4.38-.56,5.09.27a9.18,9.18,0,0,0-1-.08c-1.12.07-2.25.14-3.37.27C158.3,207.77,158.09,208.26,158.36,209Zm50.54-36.23a2.71,2.71,0,0,0-2.77-2.75,2.74,2.74,0,1,0,2.77,2.75ZM193,143.62a2.65,2.65,0,0,0,2.7-2.7,2.74,2.74,0,0,0-2.75-2.78,2.77,2.77,0,0,0-2.72,2.83A2.7,2.7,0,0,0,193,143.62Zm.13,63.31a2.7,2.7,0,0,0,2.74-2.78,2.74,2.74,0,0,0-2.75-2.7,2.74,2.74,0,0,0,0,5.48Zm-76.62-31.47a2.68,2.68,0,0,0,2.73-2.68,2.72,2.72,0,0,0-2.73-2.8,2.75,2.75,0,0,0-2.74,2.7A2.72,2.72,0,0,0,116.54,175.46Zm13.3,31.86a2.74,2.74,0,1,0,.14-5.47,2.74,2.74,0,0,0-.14,5.47Zm-.35-63.53a2.67,2.67,0,0,0,2.72-2.69,2.77,2.77,0,0,0-2.76-2.79,2.8,2.8,0,0,0-2.73,2.74A2.68,2.68,0,0,0,129.49,143.79Z" transform="translate(-37.16 -24.67)"/><path d="M137.47,225.2a10,10,0,0,1-4.1-2.07A34.5,34.5,0,0,0,120,217.19a66,66,0,0,0-13.93-1.46c-7,0-14,.17-21,.15a65.19,65.19,0,0,1-15.37-1.63c-6.44-1.58-12-4.91-17.37-8.58-7.58-5.14-11.67-12.5-13.65-21.17A57.93,57.93,0,0,1,39.51,155c1.74-6,5-11.11,9-15.84A75.32,75.32,0,0,1,91,113a60,60,0,0,1,21.78-1.21c5.07.72,9.78,2.38,13.59,6a15.6,15.6,0,0,1,4.69,8.26,4.19,4.19,0,0,1-.13,1.25,5.28,5.28,0,0,1-.89-.72c-5.38-6.91-14-10-21.94-7.59-5.33,1.6-9.24,4.82-10.71,10.44a10.73,10.73,0,0,0,1.52,8.67,29.14,29.14,0,0,0,10.32,9.6c.25.15.51.29.76.45a1.14,1.14,0,0,1,.18.19,2.88,2.88,0,0,1-.15.48c-5.6,11.19-6.64,22.9-3.93,35A49,49,0,0,0,119.13,208a45,45,0,0,0,11.64,8.42,6.14,6.14,0,0,1,2.12,1.64c1.68,2.25,3.22,4.6,4.82,6.9ZM78.39,142a26.1,26.1,0,0,0,5.55,16.24c2.87,3.58,6.47,5.46,11.19,4.49a5.14,5.14,0,0,0,4.35-4.62,11.84,11.84,0,0,0-.71-5.65,5.48,5.48,0,0,0-1-1.54c-1.7-2.09-3.62-4-5.1-6.25-3-4.56-4.2-9.54-2.32-14.92A21.72,21.72,0,0,1,97.66,120a3.24,3.24,0,0,0,.56-.78,2.56,2.56,0,0,0-1,0,58.35,58.35,0,0,0-6.67,2.93C82.76,126.52,78.55,133.14,78.39,142Zm-7.48,65.33c-2.89-2-5.89-3.92-8.73-6.08a44.67,44.67,0,0,1-10.86-11.62,29.23,29.23,0,0,1-4.67-13.48c-.49-6-.7-12.06.68-18,1.08-4.7,3.24-9,5.43-13.21q2.33-4.5,4.56-9a10.52,10.52,0,0,0,.48-1.71l-.26-.16a5.78,5.78,0,0,0-1.06.75c-3.67,3.87-7.2,7.88-9.71,12.62a47.69,47.69,0,0,0-5,29.57,33.55,33.55,0,0,0,6.24,16C53.84,200.57,62.17,204.3,70.91,207.28Z" transform="translate(-37.16 -24.67)"/><path d="M57.43,83.58a10.73,10.73,0,0,0-1.24-.78c-1.12-.51-2.28-1-3.4-1.47a5.41,5.41,0,0,1-.86-.61c.3-.17.59-.36.89-.52a5.15,5.15,0,0,1,.75-.24L52.22,78.3l2.83-2.1c-.45-.83-.91-1.6-1.3-2.41a4.1,4.1,0,0,1-.18-1c.3,0,.6,0,.89,0A7,7,0,0,0,58.3,71.4c-.88-.33-1.55-.54-2.19-.83-.22-.1-.36-.38-.53-.58a2.45,2.45,0,0,1,.72-.33c.54,0,1.1,0,1.65,0,1.26,0,1.58-.46,1.2-1.68a15.38,15.38,0,0,0-.85-1.89c1.25-2,.8-4.25,1-6.49.67.11,1.29.23,1.91.31l7,.91a4.09,4.09,0,0,0,.78,0c1.19-.13,1.48-.52.79-1.48-1.15-1.61-2.48-3.08-3.71-4.62a4,4,0,0,1-.42-.85c.31,0,.63,0,.94,0,.49,0,1,.08,1.65.14-.18-.28-.21-.39-.28-.42-3-1.51-3.14-4.54-1.86-7.33a1.18,1.18,0,0,1,1-.43c1,.16,1.88.49,2.82.74l3,.73c-1.28-3.32-1.32-3.52-1.12-4.86L75,43.51l-1.17-1.35,1.26-.72c-.72-.86-.37-1.59.26-2.26A25.19,25.19,0,0,1,77.43,37c.63-.53,1-.34,1.2.48S79,39,79.84,39c.16,0,.43-1.09.41-1.67,0-.9-.25-1.8-.34-2.7a2.81,2.81,0,0,1,.22-.85c.17.2.43.36.52.59.47,1.29,1.54,2,2.66,3a7.36,7.36,0,0,1-.24-2.29,15.27,15.27,0,0,1,1.29-3.3c.27-.52.75-.61,1.14.14a5,5,0,0,0,1.38,1.42c.07-.88-.71-1.77.49-2.42s1.48.51,2.29,1c-.11-.27-.16-.41-.21-.55a2.05,2.05,0,0,1,.87-2.91c.49-.32,1-.38,1.1.33.25,1.41,1.32,2,2.6,2.71.18-.88.31-1.65.51-2.42a3.33,3.33,0,0,1,.43-.78l.51.69a2.57,2.57,0,0,0,.91.88,12,12,0,0,1,.3-2.25,3,3,0,0,1,1-1.51c1.23-.77,1.79-.48,2.22.89.28.88.58,1.76.88,2.65.14-.07.23-.08.24-.12a5.24,5.24,0,0,1,4.2-3.76c.87-.18,1.72-.51,2.75-.83-.43,1.29-.34,2.31.73,3,.62-.69,1.15-1.39,1.79-2,.81-.74,1.29-.53,1.49.53a2.67,2.67,0,0,0,.46,1.14c.73.85,1.21.77,1.78-.19.39-.66,2.47-1.54,3.14-1.17.32.17.38.83.62,1.43.81.26.81.26,4.61-2.77,1,1.71,1,3.58,1.21,5.54.78-1,1.55-1.92,2.32-2.89a24.14,24.14,0,0,1,2.51-2.83V27l.28.12L131,24.67l.34.18c.33,1.9.66,3.79,1,5.83l5-2.09c-.34,1.83-1.68,3.79,1.11,4.83A7.4,7.4,0,0,1,143,29.15a6.46,6.46,0,0,1,4,.05A5.69,5.69,0,0,0,143.54,32l10.9-1.46-3.63,5.14,5-1.55a3.35,3.35,0,0,1,.75-.21c.18,0,.36.13.55.21-.08.18-.12.42-.26.53-.68.54-1.46,1-2.08,1.57a7.67,7.67,0,0,0-1,1.58l.2.22c1.41-.43,2.81-.88,4.23-1.27a3.65,3.65,0,0,1,1,0,3.27,3.27,0,0,1-.44.92A13.78,13.78,0,0,0,157.47,39c2.74.17,5.46-.16,7.83,1.56-1.35.68-2.64,1.23-3.83,1.94a6.51,6.51,0,0,0-1.78,1.61c-.63.84-.19,1.7.85,1.64a15.71,15.71,0,0,0,3.24-.62c1-.27,1.94-.73,2.92-1.06.19-.07.44.06.66.09-.09.21-.13.49-.28.6-.8.53-1.62,1-2.64,1.65,1.25,0,2.25-.07,3.23,0a13,13,0,0,1,2.45.56c.19.05.3.39.45.59-.25.09-.51.28-.73.24a8,8,0,0,0-5.47,1.3c.95-.06,1.9-.15,2.84-.17a15.4,15.4,0,0,1,6.41,1,3.47,3.47,0,0,1,2.3,2.22c-7.4-.72-13.59,2.42-19.49,6.09-4.18,2.6-8.06,5.69-12,8.62a1.28,1.28,0,0,1-1.81.09c-8.43-5.72-17.7-7.18-27.56-5.1a40.64,40.64,0,0,0-19.32,9.4A33.23,33.23,0,0,0,85,92.26c-.28,2.09-.28,4.21-.39,6.32,0,.44,0,.78-.59.9-5,1-9.18,3.55-13.14,6.56a89.05,89.05,0,0,0-16.67,17.14,2.66,2.66,0,0,1-.35.46,4,4,0,0,1-.62.3c-.09-.24-.29-.5-.25-.72A15.67,15.67,0,0,1,55.65,117c.39-.55.84-1.06,1.4-1.77a18.9,18.9,0,0,1-2.52.68,6.16,6.16,0,0,1-1.68-.22,5,5,0,0,1,.95-1.34c.88-.64,1.87-1.14,2.81-1.83-.53,0-1,.1-1.57.09a4.28,4.28,0,0,1-.92-.23c.18-.25.36-.51.56-.75a1.36,1.36,0,0,1,.31-.23l-3-1.83.14-.36h3.15a15.89,15.89,0,0,0-.38-3.29,4.86,4.86,0,0,0-1.48-1.83c-1-.84-1-1,.16-1.6A35.81,35.81,0,0,0,58,99.84c-.76,0-1.52,0-2.27,0a2.75,2.75,0,0,1-.8-.34c.17-.24.28-.55.51-.7a10.55,10.55,0,0,0,1.69-1.17l-3-.54,1.81-1.62c-.86-.3-1.62-.54-2.35-.82-.26-.09-.69-.33-.67-.42a1.33,1.33,0,0,1,.49-.87,11.44,11.44,0,0,1,1.82-.61c.36-.12.71-.22,1.25-.38l-2.3-3c.36-.08.68-.06.85-.21a6.63,6.63,0,0,0,1.37-1.53c.09-.17-.42-.76-.73-1.07-.74-.73-1.54-1.4-2.29-2.12a1.76,1.76,0,0,1-.26-.64,2,2,0,0,1,.73-.25c1.17.12,2.33.29,3.49.45Z" transform="translate(-37.16 -24.67)"/><path d="M136.51,114.3c-.47-1.84-.86-3.71-1.44-5.52a6.92,6.92,0,0,1,.16-5.06,10.92,10.92,0,0,0,.86-5.82c-.35-2.42-1.42-3.47-3.83-3.57a15.22,15.22,0,0,0-6.35,1.36c1.37.47,1.81,1.73,2.62,2.68a39.3,39.3,0,0,0,3.82,3.7c.25.22.77.14,1.18.19-.28,1.66-.6,3.5-.93,5.34a12,12,0,0,0,.47,6.15,25.06,25.06,0,0,1,1.17,9.42,4,4,0,0,1-.62,1.72c-4.71-12.73-13.88-18.38-27.27-17.74a5.5,5.5,0,0,1,1.06-3.48c1.69-2.18,3.45-4.3,5.26-6.38A16.36,16.36,0,0,0,116.21,92,12.78,12.78,0,0,0,117,88.1a3.12,3.12,0,0,0-4.52-2.83c-2.25,1-4.25,3.29-3.54,6.34.33,1.41.84,2.78,1.3,4.28-.11.06-.35.21-.6.34a14.64,14.64,0,0,0-7.89,10.31c-.19.86-.51,1.11-1.37,1.17a66.74,66.74,0,0,0-23.44,6.45c-.62.29-1.21.64-1.84.89-.24.09-.55,0-.83-.07v-.33l7-4.68c3.82-2.53,7.65-5,11.45-7.61a2.19,2.19,0,0,0,.83-1.28A52.05,52.05,0,0,1,99.64,83.8c3.46-5.87,8-10.54,14.87-12.22,7-1.73,13.91-1.34,20.26,2.46a18.84,18.84,0,0,1,9.15,12.65,5.51,5.51,0,0,1,0,2.49c-2.27,8.13-4.61,16.25-6.93,24.36-.07.25-.17.49-.25.73Z" transform="translate(-37.16 -24.67)"/><path d="M86.21,102.71a35.44,35.44,0,0,1-.06-9.31c.92-7.83,3.85-14.74,9.58-20.29,5.31-5.15,11.79-8.06,18.89-9.76a34.15,34.15,0,0,1,20,1,30.32,30.32,0,0,1,9.18,5.23c.25.21.48.43.64.57l-3.32,3.56c-.15,0-.26-.06-.32-.12-7.4-6.36-15.94-7.8-25.21-5.72a32.74,32.74,0,0,0-15.1,7.52c-5.28,4.8-8.18,10.9-9.47,17.82-.37,2-.43,4.07-.65,6.1,0,.32-.12.77-.34.92C88.86,101.09,87.61,101.83,86.21,102.71Z" transform="translate(-37.16 -24.67)"/><path d="M118,137.93a47.21,47.21,0,0,0-3.15,3.63c-.92,1.28-1.61,2.72-2.53,4.31-1.63-1-3.38-1.88-5-3-3.71-2.55-6.2-5.93-6.73-10.56-.7-6,4.7-11.49,10.65-10.79,1.2.14,1.82.84,1.46,2a9.73,9.73,0,0,1-1.41,2.61c-.71,1-1.6,2-2.31,3a3.94,3.94,0,0,0,.81,5.71,14.15,14.15,0,0,0,6.55,2.79C116.91,137.76,117.45,137.83,118,137.93Z" transform="translate(-37.16 -24.67)"/><path d="M117.41,120.78a16.82,16.82,0,0,1,11.16,7.27c-2.51,1-4,3-5.83,5.14.11-.82.23-1.34.25-1.86a9.74,9.74,0,0,0-2.19-6.11c-.88-1.24-2-2.34-2.94-3.5-.2-.24-.42-.47-.63-.7Z" transform="translate(-37.16 -24.67)"/><path d="M194.08,219.94l1-1.29.19.08v2.41l-.2,0-.15-1.65-.83,1-.87-1-.14,1.6h-.17v-2.6Z" transform="translate(-37.16 -24.67)"/><path d="M191.23,221.23c-.61-.75.49-2-.88-2.48h1.89C190.77,219.22,191.78,220.43,191.23,221.23Z" transform="translate(-37.16 -24.67)"/><path d="M161.82,133.51c1,2.1,2.15,4.05,4.21,5.3.2.12.28.61.25.92-.41,5.23-.86,10.47-1.27,15.71-.12,1.48-.15,3-.24,4.47a1.59,1.59,0,0,1-.29.89C163,151.76,162.5,142.63,161.82,133.51Z" transform="translate(-37.16 -24.67)"/></svg>